<?xml version="1.0" encoding="UTF-8" standalone="no"?>
<svg
   width="14px"
   height="14px"
   viewBox="0 0 14 14"
   version="1.1"
   id="svg1"
   sodipodi:docname="like.svg"
   inkscape:version="1.3.2 (091e20ef0f, 2023-11-25, custom)"
   xmlns:inkscape="http://www.inkscape.org/namespaces/inkscape"
   xmlns:sodipodi="http://sodipodi.sourceforge.net/DTD/sodipodi-0.dtd"
   xmlns="http://www.w3.org/2000/svg"
   xmlns:svg="http://www.w3.org/2000/svg"
   xmlns:rdf="http://www.w3.org/1999/02/22-rdf-syntax-ns#"
   xmlns:cc="http://creativecommons.org/ns#"
   xmlns:dc="http://purl.org/dc/elements/1.1/">
  <defs
     id="defs1" />
  <sodipodi:namedview
     id="namedview1"
     pagecolor="#ffffff"
     bordercolor="#000000"
     borderopacity="0.25"
     inkscape:showpageshadow="2"
     inkscape:pageopacity="0.0"
     inkscape:pagecheckerboard="0"
     inkscape:deskcolor="#d1d1d1"
     inkscape:zoom="42.830468"
     inkscape:cx="7.3662515"
     inkscape:cy="7.2144904"
     inkscape:window-width="1920"
     inkscape:window-height="1052"
     inkscape:window-x="0"
     inkscape:window-y="0"
     inkscape:window-maximized="1"
     inkscape:current-layer="svg1" />
  <!-- Generator: Sketch 52.2 (67145) - http://www.bohemiancoding.com/sketch -->
  <title
     id="title1">Shape</title>
  <desc
     id="desc1">Created with Sketch.</desc>
  <path
     d="m 7.0010449,14 h -0.00975 C 5.1919192,13.964471 0,8.9800148 0,4.2590674 0,1.9911177 1.758969,0 3.7638454,0 5.3591083,0 6.4319053,1.1695041 7.0003483,2.0207254 7.5667015,1.1709845 8.6394984,0 10.235458,0 12.241728,0 14,1.9911177 14,4.2598075 14,8.9785344 8.8073842,13.963731 7.0080111,13.997779 h -0.00697 z M 3.764542,1.1110289 c -1.4489725,0 -2.7189133,1.4715026 -2.7189133,3.1495188 0,4.2487047 4.9007314,8.5832713 5.9561128,8.6291633 1.0588646,-0.04589 5.9561125,-4.3797184 5.9561125,-8.6291633 0,-1.6780162 -1.269244,-3.1495188 -2.718216,-3.1495188 -1.7610591,0 -2.7446885,2.173205 -2.753048,2.1946706 -0.1602229,0.4159881 -0.8052943,0.4159881 -0.9662138,0 C 6.5099268,3.2834937 5.5269941,1.1110289 3.7652386,1.1110289 Z"
     id="Shape"
     style="fill:#000000;fill-rule:nonzero;stroke:none;stroke-width:1" />
  <metadata
     id="metadata1">
    <rdf:RDF>
      <cc:Work
         rdf:about="">
        <dc:title>Shape</dc:title>
      </cc:Work>
    </rdf:RDF>
  </metadata>
</svg>
