<?xml version="1.0" encoding="UTF-8"?>
<svg width="800px" height="800px" fill="#000000" version="1.1" viewBox="0 0 32 32" xml:space="preserve" xmlns="http://www.w3.org/2000/svg">
<circle cx="24.654" cy="9.9733" r="2.6071" fill="#fff" stroke="#000" stroke-width=".76573"/>
	
		<path d="m28.555 9.571c-0.873-2.724-3.426-4.697-6.438-4.697-3.455 0-6.3 2.593-6.707 5.939-1e-3 0-2e-3 2e-3 -3e-3 2e-3 -1.637-0.236-3.173-2.795-4.747-7.264-3.512 4.176-3.298 8.804-2.241 10.538-2.238 0.246-6.541-1.062-8.419-2.086 3.273 7.317 7.955 10.891 12.538 11.872 1.554 0.824 3.321 1.302 5.204 1.302 0.199 0 0.395-0.021 0.591-0.028l-0.933 1.581-1.971 0.646 0.159 0.487 1.91-0.625 0.898 0.922 0.367-0.356-0.875-0.897 1.06-1.795c0.729-0.08 1.436-0.227 2.114-0.438l2.021 2.583-1.713 0.635 0.178 0.48 1.943-0.721 1.789 0.799 0.209-0.467-1.826-0.817-2.096-2.677c4.236-1.555 7.271-5.599 7.307-10.365 0.052-0.162 0.102-0.318 0.141-0.461 0.078-0.266 2.985-3.164 2.985-3.164l-3.445-0.928zm-3.798 2.463c-1.024 0-1.854-0.831-1.854-1.857 0-1.025 0.83-1.856 1.854-1.856 1.025 0 1.856 0.831 1.856 1.856 0 1.026-0.831 1.857-1.856 1.857z"/>
		<path d="m24.885 9.249c0.038 0.073 0.066 0.152 0.066 0.24 0 0.284-0.23 0.515-0.514 0.515-0.166 0-0.307-0.083-0.399-0.203-0.052 0.115-0.081 0.242-0.081 0.376 0 0.513 0.415 0.928 0.928 0.928 0.514 0 0.928-0.415 0.928-0.928-1e-3 -0.512-0.417-0.928-0.928-0.928z"/>
	

</svg>
